<svg width="220" height="60" viewBox="0 0 220 60" fill="none" xmlns="http://www.w3.org/2000/svg">
<rect width="220" height="60" rx="6" fill="#2B96E4"/>
<g clip-path="url(#clip0_446_20)">
<path d="M28.26 25.04C28.0213 22.2938 25.1563 20.9463 25.035 20.8913C24.9217 20.838 24.7946 20.8209 24.6713 20.8425C21.3638 21.3913 20.8663 23.3163 20.8463 23.3963C20.819 23.5077 20.8234 23.6246 20.8588 23.7338C24.8038 35.9738 33.0025 38.2425 35.6975 38.9888C35.905 39.0463 36.0763 39.0925 36.2063 39.135C36.3546 39.1835 36.5158 39.1741 36.6575 39.1088C36.74 39.0713 38.6875 38.1538 39.1638 35.1613C39.1849 35.0306 39.1639 34.8966 39.1038 34.7788C39.0613 34.6963 38.0425 32.7575 35.2175 32.0725C35.1217 32.048 35.0213 32.0471 34.9251 32.07C34.8288 32.0929 34.7396 32.1388 34.665 32.2038C33.7738 32.965 32.5425 33.7763 32.0113 33.86C28.45 32.1188 26.4613 28.7775 26.3863 28.1438C26.3425 27.7875 27.1588 26.5363 28.0975 25.5188C28.1565 25.4547 28.2015 25.379 28.2294 25.2966C28.2574 25.2141 28.2678 25.1267 28.26 25.04Z" fill="white"/>
</g>
<path d="M57.832 22.252V36.5H55.0195V25.4941L51.6406 26.5684V24.3516L57.5293 22.252H57.832ZM68.125 29.293V31.5H62.6074V29.293H68.125ZM79.9316 32.6035C79.9316 33.4954 79.7233 34.2474 79.3066 34.8594C78.89 35.4648 78.3171 35.9238 77.5879 36.2363C76.8652 36.5423 76.0449 36.6953 75.127 36.6953C74.209 36.6953 73.3854 36.5423 72.6562 36.2363C71.9271 35.9238 71.3509 35.4648 70.9277 34.8594C70.5046 34.2474 70.293 33.4954 70.293 32.6035C70.293 32.0046 70.4134 31.4642 70.6543 30.9824C70.8952 30.4941 71.2305 30.0775 71.6602 29.7324C72.0964 29.3809 72.6074 29.1139 73.1934 28.9316C73.7793 28.7428 74.4173 28.6484 75.1074 28.6484C76.0319 28.6484 76.8587 28.8112 77.5879 29.1367C78.3171 29.4622 78.89 29.9212 79.3066 30.5137C79.7233 31.1061 79.9316 31.8027 79.9316 32.6035ZM77.0996 32.418C77.0996 31.9818 77.015 31.6074 76.8457 31.2949C76.6829 30.9759 76.4518 30.7318 76.1523 30.5625C75.8529 30.3932 75.5046 30.3086 75.1074 30.3086C74.7103 30.3086 74.362 30.3932 74.0625 30.5625C73.763 30.7318 73.5286 30.9759 73.3594 31.2949C73.1966 31.6074 73.1152 31.9818 73.1152 32.418C73.1152 32.8477 73.1966 33.2188 73.3594 33.5312C73.5286 33.8438 73.763 34.0846 74.0625 34.2539C74.3685 34.4167 74.7233 34.498 75.127 34.498C75.5306 34.498 75.8789 34.4167 76.1719 34.2539C76.4714 34.0846 76.6992 33.8438 76.8555 33.5312C77.0182 33.2188 77.0996 32.8477 77.0996 32.418ZM79.6289 26.0508C79.6289 26.7734 79.4368 27.4147 79.0527 27.9746C78.6686 28.528 78.1348 28.9609 77.4512 29.2734C76.7741 29.5859 75.9993 29.7422 75.127 29.7422C74.248 29.7422 73.4668 29.5859 72.7832 29.2734C72.0996 28.9609 71.5658 28.528 71.1816 27.9746C70.7975 27.4147 70.6055 26.7734 70.6055 26.0508C70.6055 25.1914 70.7975 24.4688 71.1816 23.8828C71.5723 23.2904 72.1061 22.8411 72.7832 22.5352C73.4668 22.2292 74.2415 22.0762 75.1074 22.0762C75.9863 22.0762 76.7643 22.2292 77.4414 22.5352C78.125 22.8411 78.6589 23.2904 79.043 23.8828C79.4336 24.4688 79.6289 25.1914 79.6289 26.0508ZM76.8164 26.1777C76.8164 25.7936 76.748 25.4616 76.6113 25.1816C76.4746 24.8952 76.2793 24.6738 76.0254 24.5176C75.778 24.3613 75.472 24.2832 75.1074 24.2832C74.7559 24.2832 74.4531 24.3581 74.1992 24.5078C73.9518 24.6576 73.7598 24.8757 73.623 25.1621C73.4928 25.4421 73.4277 25.7806 73.4277 26.1777C73.4277 26.5618 73.4928 26.9004 73.623 27.1934C73.7598 27.4798 73.9551 27.7044 74.209 27.8672C74.4629 28.0299 74.7689 28.1113 75.127 28.1113C75.485 28.1113 75.7878 28.0299 76.0352 27.8672C76.2891 27.7044 76.4811 27.4798 76.6113 27.1934C76.748 26.9004 76.8164 26.5618 76.8164 26.1777ZM84.4824 30.0254L82.2363 29.4883L83.0469 22.2812H91.0352V24.5566H85.3613L85.0098 27.7109C85.1986 27.6003 85.485 27.4831 85.8691 27.3594C86.2533 27.2292 86.6829 27.1641 87.1582 27.1641C87.8483 27.1641 88.4603 27.2715 88.9941 27.4863C89.528 27.7012 89.9805 28.0137 90.3516 28.4238C90.7292 28.834 91.0156 29.3353 91.2109 29.9277C91.4062 30.5202 91.5039 31.1908 91.5039 31.9395C91.5039 32.571 91.4062 33.1732 91.2109 33.7461C91.0156 34.3125 90.7194 34.8203 90.3223 35.2695C89.9251 35.7122 89.4271 36.0605 88.8281 36.3145C88.2292 36.5684 87.5195 36.6953 86.6992 36.6953C86.0872 36.6953 85.4948 36.6042 84.9219 36.4219C84.3555 36.2396 83.8444 35.9694 83.3887 35.6113C82.9395 35.2533 82.5781 34.8203 82.3047 34.3125C82.0378 33.7982 81.8978 33.2122 81.8848 32.5547H84.6777C84.7168 32.9583 84.821 33.3066 84.9902 33.5996C85.166 33.8861 85.3971 34.1074 85.6836 34.2637C85.9701 34.4199 86.3053 34.498 86.6895 34.498C87.0475 34.498 87.3535 34.4297 87.6074 34.293C87.8613 34.1562 88.0664 33.9674 88.2227 33.7266C88.3789 33.4792 88.4928 33.1927 88.5645 32.8672C88.6426 32.5352 88.6816 32.1771 88.6816 31.793C88.6816 31.4089 88.6361 31.0605 88.5449 30.748C88.4538 30.4355 88.3138 30.1654 88.125 29.9375C87.9362 29.7096 87.6953 29.5339 87.4023 29.4102C87.1159 29.2865 86.7806 29.2246 86.3965 29.2246C85.8757 29.2246 85.472 29.306 85.1855 29.4688C84.9056 29.6315 84.6712 29.8171 84.4824 30.0254ZM95.9668 30.0254L93.7207 29.4883L94.5312 22.2812H102.52V24.5566H96.8457L96.4941 27.7109C96.6829 27.6003 96.9694 27.4831 97.3535 27.3594C97.7376 27.2292 98.1673 27.1641 98.6426 27.1641C99.3327 27.1641 99.9447 27.2715 100.479 27.4863C101.012 27.7012 101.465 28.0137 101.836 28.4238C102.214 28.834 102.5 29.3353 102.695 29.9277C102.891 30.5202 102.988 31.1908 102.988 31.9395C102.988 32.571 102.891 33.1732 102.695 33.7461C102.5 34.3125 102.204 34.8203 101.807 35.2695C101.41 35.7122 100.911 36.0605 100.312 36.3145C99.7135 36.5684 99.0039 36.6953 98.1836 36.6953C97.5716 36.6953 96.9792 36.6042 96.4062 36.4219C95.8398 36.2396 95.3288 35.9694 94.873 35.6113C94.4238 35.2533 94.0625 34.8203 93.7891 34.3125C93.5221 33.7982 93.3822 33.2122 93.3691 32.5547H96.1621C96.2012 32.9583 96.3053 33.3066 96.4746 33.5996C96.6504 33.8861 96.8815 34.1074 97.168 34.2637C97.4544 34.4199 97.7897 34.498 98.1738 34.498C98.5319 34.498 98.8379 34.4297 99.0918 34.293C99.3457 34.1562 99.5508 33.9674 99.707 33.7266C99.8633 33.4792 99.9772 33.1927 100.049 32.8672C100.127 32.5352 100.166 32.1771 100.166 31.793C100.166 31.4089 100.12 31.0605 100.029 30.748C99.9382 30.4355 99.7982 30.1654 99.6094 29.9375C99.4206 29.7096 99.1797 29.5339 98.8867 29.4102C98.6003 29.2865 98.265 29.2246 97.8809 29.2246C97.36 29.2246 96.9564 29.306 96.6699 29.4688C96.39 29.6315 96.1556 29.8171 95.9668 30.0254ZM110.469 29.293V31.5H104.951V29.293H110.469ZM119.951 22.1348H120.361V24.3809H120.195C119.453 24.3809 118.792 24.4915 118.213 24.7129C117.633 24.9342 117.142 25.25 116.738 25.6602C116.341 26.0638 116.035 26.5521 115.82 27.125C115.612 27.6979 115.508 28.3392 115.508 29.0488V31.4121C115.508 31.9199 115.557 32.3691 115.654 32.7598C115.758 33.1439 115.905 33.4661 116.094 33.7266C116.289 33.9805 116.517 34.1725 116.777 34.3027C117.038 34.4264 117.331 34.4883 117.656 34.4883C117.962 34.4883 118.239 34.4232 118.486 34.293C118.74 34.1628 118.955 33.9805 119.131 33.7461C119.313 33.5052 119.45 33.2253 119.541 32.9062C119.639 32.5807 119.688 32.2259 119.688 31.8418C119.688 31.4577 119.639 31.1029 119.541 30.7773C119.45 30.4518 119.313 30.1719 119.131 29.9375C118.949 29.6966 118.727 29.5111 118.467 29.3809C118.206 29.2507 117.913 29.1855 117.588 29.1855C117.145 29.1855 116.755 29.2897 116.416 29.498C116.084 29.6999 115.824 29.9603 115.635 30.2793C115.446 30.5983 115.345 30.9336 115.332 31.2852L114.482 30.7383C114.502 30.237 114.606 29.7617 114.795 29.3125C114.99 28.8633 115.257 28.4661 115.596 28.1211C115.941 27.7695 116.354 27.4961 116.836 27.3008C117.318 27.099 117.861 26.998 118.467 26.998C119.131 26.998 119.714 27.125 120.215 27.3789C120.723 27.6328 121.146 27.9811 121.484 28.4238C121.823 28.8665 122.077 29.3776 122.246 29.957C122.415 30.5365 122.5 31.1549 122.5 31.8125C122.5 32.5026 122.386 33.1439 122.158 33.7363C121.937 34.3288 121.615 34.8464 121.191 35.2891C120.775 35.7318 120.273 36.0768 119.688 36.3242C119.102 36.5716 118.444 36.6953 117.715 36.6953C116.96 36.6953 116.273 36.5586 115.654 36.2852C115.042 36.0052 114.515 35.6146 114.072 35.1133C113.63 34.612 113.288 34.0163 113.047 33.3262C112.812 32.6361 112.695 31.8809 112.695 31.0605V29.9668C112.695 28.821 112.861 27.7728 113.193 26.8223C113.532 25.8652 114.017 25.0384 114.648 24.3418C115.28 23.6387 116.042 23.0951 116.934 22.7109C117.826 22.3268 118.831 22.1348 119.951 22.1348ZM126.826 30.0254L124.58 29.4883L125.391 22.2812H133.379V24.5566H127.705L127.354 27.7109C127.542 27.6003 127.829 27.4831 128.213 27.3594C128.597 27.2292 129.027 27.1641 129.502 27.1641C130.192 27.1641 130.804 27.2715 131.338 27.4863C131.872 27.7012 132.324 28.0137 132.695 28.4238C133.073 28.834 133.359 29.3353 133.555 29.9277C133.75 30.5202 133.848 31.1908 133.848 31.9395C133.848 32.571 133.75 33.1732 133.555 33.7461C133.359 34.3125 133.063 34.8203 132.666 35.2695C132.269 35.7122 131.771 36.0605 131.172 36.3145C130.573 36.5684 129.863 36.6953 129.043 36.6953C128.431 36.6953 127.839 36.6042 127.266 36.4219C126.699 36.2396 126.188 35.9694 125.732 35.6113C125.283 35.2533 124.922 34.8203 124.648 34.3125C124.382 33.7982 124.242 33.2122 124.229 32.5547H127.021C127.061 32.9583 127.165 33.3066 127.334 33.5996C127.51 33.8861 127.741 34.1074 128.027 34.2637C128.314 34.4199 128.649 34.498 129.033 34.498C129.391 34.498 129.697 34.4297 129.951 34.293C130.205 34.1562 130.41 33.9674 130.566 33.7266C130.723 33.4792 130.837 33.1927 130.908 32.8672C130.986 32.5352 131.025 32.1771 131.025 31.793C131.025 31.4089 130.98 31.0605 130.889 30.748C130.798 30.4355 130.658 30.1654 130.469 29.9375C130.28 29.7096 130.039 29.5339 129.746 29.4102C129.46 29.2865 129.124 29.2246 128.74 29.2246C128.219 29.2246 127.816 29.306 127.529 29.4688C127.249 29.6315 127.015 29.8171 126.826 30.0254ZM137.656 34.3613H137.842C138.623 34.3613 139.294 34.2669 139.854 34.0781C140.42 33.8828 140.885 33.6029 141.25 33.2383C141.615 32.8737 141.885 32.4277 142.061 31.9004C142.236 31.3665 142.324 30.7611 142.324 30.084V27.3887C142.324 26.8743 142.272 26.4219 142.168 26.0312C142.07 25.6406 141.927 25.3184 141.738 25.0645C141.556 24.804 141.341 24.6087 141.094 24.4785C140.853 24.3483 140.586 24.2832 140.293 24.2832C139.98 24.2832 139.704 24.3613 139.463 24.5176C139.222 24.6673 139.017 24.8724 138.848 25.1328C138.685 25.3932 138.558 25.6927 138.467 26.0312C138.382 26.3633 138.34 26.7116 138.34 27.0762C138.34 27.4408 138.382 27.7891 138.467 28.1211C138.551 28.4466 138.678 28.7363 138.848 28.9902C139.017 29.2376 139.229 29.4362 139.482 29.5859C139.736 29.7292 140.036 29.8008 140.381 29.8008C140.713 29.8008 141.009 29.7389 141.27 29.6152C141.536 29.485 141.761 29.3158 141.943 29.1074C142.132 28.8991 142.275 28.668 142.373 28.4141C142.477 28.1602 142.529 27.903 142.529 27.6426L143.457 28.1504C143.457 28.6061 143.359 29.0553 143.164 29.498C142.969 29.9408 142.695 30.3444 142.344 30.709C141.999 31.0671 141.598 31.3535 141.143 31.5684C140.687 31.7832 140.199 31.8906 139.678 31.8906C139.014 31.8906 138.424 31.7702 137.91 31.5293C137.396 31.2819 136.96 30.9434 136.602 30.5137C136.25 30.0775 135.983 29.5697 135.801 28.9902C135.618 28.4108 135.527 27.7826 135.527 27.1055C135.527 26.4154 135.638 25.7676 135.859 25.1621C136.087 24.5566 136.41 24.0228 136.826 23.5605C137.249 23.0983 137.754 22.737 138.34 22.4766C138.932 22.2096 139.59 22.0762 140.312 22.0762C141.035 22.0762 141.693 22.2161 142.285 22.4961C142.878 22.776 143.385 23.1732 143.809 23.6875C144.232 24.1953 144.557 24.804 144.785 25.5137C145.02 26.2233 145.137 27.0111 145.137 27.877V28.8535C145.137 29.778 145.036 30.6374 144.834 31.4316C144.639 32.2259 144.342 32.9453 143.945 33.5898C143.555 34.2279 143.066 34.7747 142.48 35.2305C141.901 35.6862 141.227 36.0345 140.459 36.2754C139.691 36.5163 138.831 36.6367 137.881 36.6367H137.656V34.3613ZM152.812 29.293V31.5H147.295V29.293H152.812ZM161.895 22.252V36.5H159.082V25.4941L155.703 26.5684V24.3516L161.592 22.252H161.895ZM169.17 30.0254L166.924 29.4883L167.734 22.2812H175.723V24.5566H170.049L169.697 27.7109C169.886 27.6003 170.173 27.4831 170.557 27.3594C170.941 27.2292 171.37 27.1641 171.846 27.1641C172.536 27.1641 173.148 27.2715 173.682 27.4863C174.215 27.7012 174.668 28.0137 175.039 28.4238C175.417 28.834 175.703 29.3353 175.898 29.9277C176.094 30.5202 176.191 31.1908 176.191 31.9395C176.191 32.571 176.094 33.1732 175.898 33.7461C175.703 34.3125 175.407 34.8203 175.01 35.2695C174.613 35.7122 174.115 36.0605 173.516 36.3145C172.917 36.5684 172.207 36.6953 171.387 36.6953C170.775 36.6953 170.182 36.6042 169.609 36.4219C169.043 36.2396 168.532 35.9694 168.076 35.6113C167.627 35.2533 167.266 34.8203 166.992 34.3125C166.725 33.7982 166.585 33.2122 166.572 32.5547H169.365C169.404 32.9583 169.508 33.3066 169.678 33.5996C169.854 33.8861 170.085 34.1074 170.371 34.2637C170.658 34.4199 170.993 34.498 171.377 34.498C171.735 34.498 172.041 34.4297 172.295 34.293C172.549 34.1562 172.754 33.9674 172.91 33.7266C173.066 33.4792 173.18 33.1927 173.252 32.8672C173.33 32.5352 173.369 32.1771 173.369 31.793C173.369 31.4089 173.324 31.0605 173.232 30.748C173.141 30.4355 173.001 30.1654 172.812 29.9375C172.624 29.7096 172.383 29.5339 172.09 29.4102C171.803 29.2865 171.468 29.2246 171.084 29.2246C170.563 29.2246 170.16 29.306 169.873 29.4688C169.593 29.6315 169.359 29.8171 169.17 30.0254ZM187.578 28.1406V30.6016C187.578 31.6693 187.464 32.5905 187.236 33.3652C187.008 34.1335 186.68 34.765 186.25 35.2598C185.827 35.748 185.322 36.1094 184.736 36.3438C184.15 36.5781 183.499 36.6953 182.783 36.6953C182.21 36.6953 181.676 36.6237 181.182 36.4805C180.687 36.3307 180.241 36.0996 179.844 35.7871C179.453 35.4746 179.115 35.0807 178.828 34.6055C178.548 34.1237 178.333 33.5508 178.184 32.8867C178.034 32.2227 177.959 31.4609 177.959 30.6016V28.1406C177.959 27.0729 178.073 26.1582 178.301 25.3965C178.535 24.6283 178.864 24 179.287 23.5117C179.717 23.0234 180.225 22.6654 180.811 22.4375C181.396 22.2031 182.048 22.0859 182.764 22.0859C183.337 22.0859 183.867 22.1608 184.355 22.3105C184.85 22.4538 185.296 22.6784 185.693 22.9844C186.09 23.2904 186.429 23.6842 186.709 24.166C186.989 24.6413 187.204 25.2109 187.354 25.875C187.503 26.5326 187.578 27.2878 187.578 28.1406ZM184.756 30.9727V27.7598C184.756 27.2454 184.727 26.7962 184.668 26.4121C184.616 26.028 184.535 25.7025 184.424 25.4355C184.313 25.1621 184.176 24.9408 184.014 24.7715C183.851 24.6022 183.665 24.4785 183.457 24.4004C183.249 24.3223 183.018 24.2832 182.764 24.2832C182.445 24.2832 182.161 24.3451 181.914 24.4688C181.673 24.5924 181.468 24.791 181.299 25.0645C181.13 25.3314 180.999 25.6895 180.908 26.1387C180.824 26.5814 180.781 27.1217 180.781 27.7598V30.9727C180.781 31.487 180.807 31.9395 180.859 32.3301C180.918 32.7207 181.003 33.056 181.113 33.3359C181.23 33.6094 181.367 33.834 181.523 34.0098C181.686 34.179 181.872 34.3027 182.08 34.3809C182.295 34.459 182.529 34.498 182.783 34.498C183.096 34.498 183.372 34.4362 183.613 34.3125C183.861 34.1823 184.069 33.9805 184.238 33.707C184.414 33.4271 184.544 33.0625 184.629 32.6133C184.714 32.1641 184.756 31.6172 184.756 30.9727ZM199.15 22.2812V23.7949L193.652 36.5H190.684L196.182 24.4785H189.102V22.2812H199.15Z" fill="white"/>
<defs>
<clipPath id="clip0_446_20">
<rect width="20" height="20" fill="white" transform="translate(20 20)"/>
</clipPath>
</defs>
</svg>
