<svg width="385" height="99" viewBox="0 0 385 99" fill="none" xmlns="http://www.w3.org/2000/svg">
<path d="M68.1902 0.0200005C68.9302 0.49 69.1802 1.17 69.2202 2.03C69.3402 4.63 69.9202 7.13 71.1302 9.45C73.1902 13.42 76.4902 15.47 80.9402 15.69C81.3102 15.71 81.6803 15.7 82.0403 15.77C82.8903 15.94 83.3902 16.59 83.3202 17.41C83.2402 18.26 82.7502 18.73 81.9002 18.83C80.7402 18.97 79.5602 18.99 78.4402 19.26C74.1602 20.28 71.5702 23.16 70.2702 27.2C69.7002 28.99 69.5002 30.91 69.2102 32.78C69.0302 33.93 68.5602 34.58 67.6502 34.6C66.7202 34.62 66.0802 33.93 66.0302 32.75C65.9202 30.14 65.3602 27.65 64.1902 25.31C62.2502 21.42 59.1102 19.28 54.7702 18.93C54.3102 18.89 53.8502 18.88 53.3902 18.83C52.5102 18.73 51.9502 18.17 51.9102 17.36C51.8702 16.51 52.4202 15.85 53.3302 15.73C54.0902 15.63 54.8702 15.66 55.6202 15.55C60.3202 14.86 63.3302 12.08 64.8302 7.72C65.4502 5.92 65.6902 3.97 65.9702 2.07C66.1002 1.19 66.2702 0.46 67.0802 0H68.1803L68.1902 0.0200005ZM74.5802 17.3C71.3002 15.48 69.0602 12.9 67.7202 9.73C66.7402 11.17 65.9203 12.7 64.7903 13.97C63.6503 15.25 62.2202 16.27 60.8702 17.44C63.9102 19.14 66.1602 21.7 67.6202 25.17C69.0802 21.66 71.3402 19.12 74.5802 17.31V17.3Z" fill="#4A90E2"/>
<path d="M37.8203 15.78V48.69H62.8803C62.8803 47.08 62.8803 45.52 62.8803 43.97C62.8803 42.56 62.8803 41.15 62.8803 39.74C62.8803 38.48 63.4503 37.78 64.4403 37.77C65.4503 37.76 66.0103 38.43 66.0203 39.7C66.0203 55.14 66.0203 70.57 66.0203 86.01C66.0203 87.56 65.5003 88.04 63.8703 88.04C46.6803 88.04 29.5003 88.04 12.3103 88.04C11.0203 88.04 9.73032 88.04 8.44032 88.04C6.82032 88.04 6.32031 87.52 6.32031 85.87C6.32031 64.05 6.32031 42.23 6.32031 20.41C6.32031 18.45 6.32031 16.48 6.32031 14.52C6.32031 13.18 6.88032 12.59 8.21032 12.59C21.6203 12.59 35.0303 12.59 48.4403 12.59C49.5903 12.59 50.3103 13.23 50.3103 14.18C50.3103 15.13 49.6003 15.73 48.4303 15.73C45.1503 15.73 41.8603 15.73 38.5803 15.73C38.3403 15.73 38.1003 15.77 37.8203 15.79V15.78ZM34.5603 84.84V51.96H9.53032V84.84H34.5603ZM9.50031 48.66H34.5303V15.77H9.50031V48.66ZM37.8203 51.94V84.84H62.8203V51.94H37.8203Z" fill="#1B3A57"/>
<path d="M0.0402886 50.28C0.0402886 37.42 0.100288 24.56 0.000287641 11.7C-0.0297124 8.34004 2.29029 6.25005 5.40029 6.26005C23.2303 6.33005 41.0603 6.29004 58.8903 6.29004C59.2603 6.29004 59.6303 6.27005 59.9903 6.35005C60.7703 6.51005 61.2403 7.19004 61.2003 7.97004C61.1603 8.75004 60.6103 9.33004 59.8003 9.41004C59.4703 9.44004 59.1303 9.43004 58.7903 9.43004C41.0503 9.43004 23.3103 9.43004 5.57029 9.43004C3.57029 9.43004 3.17029 9.83005 3.17029 11.87C3.17029 37.5 3.17029 63.12 3.17029 88.75C3.17029 90.77 3.57029 91.17 5.59029 91.17C26.0003 91.17 46.4103 91.17 66.8203 91.17C68.7303 91.17 69.1503 90.75 69.1503 88.86C69.1503 72.62 69.1503 56.39 69.1503 40.15C69.1503 39.72 69.1503 39.28 69.2603 38.88C69.4703 38.1 70.0403 37.71 70.8403 37.77C71.6503 37.83 72.1303 38.29 72.2503 39.09C72.3003 39.42 72.2903 39.76 72.2903 40.1C72.2903 56.37 72.2503 72.63 72.3303 88.9C72.3503 92.44 69.9103 94.36 66.8503 94.35C46.2903 94.28 25.7203 94.31 5.16029 94.31C2.54029 94.31 0.660287 92.93 0.140287 90.6C0.020287 90.07 0.0302902 89.5 0.0302902 88.95C0.0302902 76.06 0.0302902 63.17 0.0302902 50.28H0.0402886Z" fill="#1B3A57"/>
<path d="M61.3202 34.56C61.3302 35.38 60.7202 36.03 59.8302 36.13C59.1602 36.21 58.4802 36.23 57.8302 36.38C55.3902 36.95 53.7502 38.52 52.9402 40.81C52.3902 42.38 52.1902 44.07 51.8702 45.72C51.7202 46.52 51.3002 47.02 50.5202 47.13C49.7702 47.24 49.1802 46.9 48.9002 46.2C48.7502 45.81 48.7802 45.36 48.6902 44.94C48.3902 43.57 48.2202 42.15 47.7202 40.85C46.6002 37.91 44.4002 36.31 41.2202 36.15C41.1002 36.15 40.9702 36.15 40.8502 36.13C39.9502 36.04 39.3302 35.43 39.3102 34.6C39.3002 33.79 39.9102 33.12 40.8002 33.01C41.2902 32.95 41.7802 32.98 42.2602 32.9C44.9602 32.46 46.7502 30.84 47.7002 28.36C48.1902 27.09 48.3702 25.7 48.6702 24.37C48.7402 24.07 48.7002 23.76 48.7502 23.46C48.9002 22.55 49.5302 21.99 50.3702 22.03C51.1702 22.06 51.7102 22.62 51.8602 23.5C52.0702 24.8 52.1802 26.13 52.5502 27.38C53.6202 31.01 55.8302 32.72 59.5902 33C60.6202 33.08 61.2902 33.69 61.3002 34.56H61.3202ZM50.3202 38.43C51.4102 37.18 52.6002 35.82 53.6702 34.6C52.5302 33.29 51.3702 31.94 50.3302 30.74C49.2302 32.01 48.0502 33.35 46.9702 34.59C48.0602 35.84 49.2202 37.17 50.3202 38.43Z" fill="#4A90E2"/>
<path d="M42.2102 63.16C41.8202 63.16 41.4302 63.01 41.1302 62.71C40.5302 62.11 40.5302 61.14 41.1302 60.54L46.6702 54.97C47.2702 54.37 48.2402 54.37 48.8402 54.97C49.4402 55.57 49.4402 56.54 48.8402 57.14L43.3002 62.71C43.0002 63.01 42.6102 63.16 42.2102 63.16Z" fill="#1B3A57"/>
<path d="M42.5703 70.65C42.1803 70.65 41.7903 70.5 41.4903 70.2C40.8903 69.6 40.8903 68.63 41.4903 68.03L54.1803 55.34C54.7803 54.74 55.7503 54.74 56.3503 55.34C56.9503 55.94 56.9503 56.91 56.3503 57.51L43.6603 70.2C43.3603 70.5 42.9703 70.65 42.5803 70.65H42.5703Z" fill="#1B3A57"/>
<path d="M14.4404 27.11C14.0504 27.11 13.6604 26.96 13.3604 26.66C12.7604 26.06 12.7604 25.09 13.3604 24.49L18.9004 18.92C19.5004 18.32 20.4704 18.32 21.0704 18.92C21.6704 19.52 21.6704 20.49 21.0704 21.09L15.5304 26.66C15.2304 26.96 14.8404 27.11 14.4404 27.11Z" fill="#1B3A57"/>
<path d="M14.8003 34.61C14.4103 34.61 14.0203 34.46 13.7203 34.16C13.1203 33.56 13.1203 32.59 13.7203 31.99L26.4103 19.3C27.0103 18.7 27.9803 18.7 28.5803 19.3C29.1803 19.9 29.1803 20.87 28.5803 21.47L15.8903 34.16C15.5903 34.46 15.2003 34.61 14.8103 34.61H14.8003Z" fill="#1B3A57"/>
<path d="M106.32 45.72V13.27H118.97C121.44 13.27 123.54 13.74 125.26 14.67C126.99 15.61 128.3 16.9 129.21 18.55C130.12 20.2 130.57 22.09 130.57 24.22C130.57 26.35 130.11 28.26 129.19 29.89C128.27 31.52 126.93 32.8 125.18 33.72C123.43 34.64 121.31 35.1 118.81 35.1H110.67V29.74H117.75C119.11 29.74 120.24 29.5 121.11 29.03C121.99 28.56 122.64 27.91 123.07 27.08C123.5 26.25 123.71 25.29 123.71 24.2C123.71 23.11 123.5 22.16 123.07 21.34C122.64 20.52 121.98 19.88 121.1 19.42C120.21 18.96 119.09 18.73 117.72 18.73H112.95V45.69H106.31L106.32 45.72Z" fill="#1B3A57"/>
<path d="M135.22 45.72V13.27H141.86V40.21H155.86V45.72H135.22Z" fill="#1B3A57"/>
<path d="M158.57 45.72L169.65 13.27H178.36L189.73 45.72H182.35L177.15 30.06C176.53 28.04 175.89 25.83 175.25 23.43C174.6 21.03 173.92 18.4 173.21 15.56H174.67C173.97 18.42 173.32 21.06 172.72 23.48C172.12 25.9 171.52 28.09 170.92 30.07L165.91 45.73H158.57V45.72ZM165.5 38.19V32.99H182.81V38.19H165.5Z" fill="#1B3A57"/>
<path d="M188.64 18.78V13.27H215.14V18.78H205.23V45.72H198.57V18.78H188.64Z" fill="#1B3A57"/>
<path d="M226.36 13.27V45.72H219.72V13.27H226.36Z" fill="#1B3A57"/>
<path d="M232.24 45.72V13.27H239.64L249.9 29.69C250.42 30.53 250.95 31.45 251.49 32.43C252.03 33.41 252.58 34.51 253.13 35.72C253.69 36.93 254.24 38.28 254.8 39.79H254.13C254.03 38.58 253.94 37.3 253.86 35.93C253.78 34.57 253.71 33.26 253.65 32.01C253.59 30.76 253.56 29.7 253.56 28.83V13.26H260.35V45.71H252.92L243.6 30.82C242.92 29.7 242.29 28.62 241.71 27.56C241.13 26.51 240.52 25.35 239.89 24.08C239.26 22.81 238.51 21.29 237.64 19.52H238.49C238.58 21.09 238.66 22.59 238.75 24.03C238.84 25.47 238.91 26.77 238.96 27.94C239.01 29.11 239.04 30.06 239.04 30.8V45.72H232.25H232.24Z" fill="#1B3A57"/>
<path d="M279.6 46.18C276.93 46.18 274.59 45.68 272.58 44.69C270.57 43.7 269.01 42.31 267.9 40.54C266.79 38.77 266.23 36.7 266.23 34.33V13.27H272.87V33.78C272.87 35.04 273.15 36.16 273.71 37.14C274.27 38.12 275.05 38.89 276.06 39.45C277.07 40.01 278.25 40.29 279.6 40.29C280.95 40.29 282.15 40.01 283.16 39.45C284.17 38.89 284.95 38.12 285.51 37.14C286.07 36.16 286.35 35.04 286.35 33.78V13.27H293.01V34.33C293.01 36.7 292.45 38.77 291.33 40.54C290.21 42.31 288.65 43.69 286.64 44.69C284.63 45.68 282.28 46.18 279.6 46.18Z" fill="#1B3A57"/>
<path d="M298.87 45.72V13.27H309.06L314.33 28.16C314.55 28.86 314.8 29.76 315.08 30.86C315.36 31.96 315.65 33.15 315.94 34.43C316.23 35.71 316.5 36.95 316.76 38.15C317.01 39.36 317.22 40.4 317.38 41.29H316.1C316.26 40.42 316.47 39.39 316.72 38.19C316.97 36.99 317.25 35.75 317.54 34.48C317.83 33.21 318.12 32.01 318.4 30.89C318.68 29.77 318.93 28.87 319.15 28.17L324.33 13.28H334.56V45.73H327.87V30.44C327.87 29.73 327.88 28.84 327.9 27.78C327.92 26.72 327.95 25.58 327.99 24.35C328.03 23.12 328.06 21.89 328.09 20.65C328.12 19.41 328.14 18.24 328.16 17.13H328.57C328.29 18.34 327.99 19.58 327.66 20.87C327.33 22.15 326.99 23.4 326.65 24.6C326.31 25.8 325.99 26.91 325.68 27.92C325.37 28.93 325.11 29.77 324.9 30.43L319.52 45.72H313.92L308.45 30.43C308.23 29.76 307.97 28.93 307.67 27.94C307.36 26.95 307.04 25.85 306.7 24.64C306.36 23.44 306.01 22.19 305.66 20.91C305.31 19.62 304.99 18.37 304.68 17.13H305.18C305.19 18.18 305.22 19.32 305.25 20.55C305.28 21.78 305.31 23.02 305.35 24.26C305.39 25.5 305.42 26.66 305.44 27.72C305.46 28.79 305.47 29.69 305.47 30.43V45.72H298.87Z" fill="#1B3A57"/>
<path d="M111.65 91.0501L104.36 64.3H107.84L112.08 80.71C112.31 81.58 112.52 82.4701 112.73 83.3801C112.94 84.2901 113.13 85.2001 113.32 86.1301C113.51 87.0601 113.69 88.01 113.86 88.99H113.45C113.63 88.01 113.82 87.0501 114.01 86.1301C114.2 85.2001 114.41 84.2901 114.62 83.3801C114.84 82.4801 115.06 81.59 115.28 80.71L119.61 64.3H123.49L127.78 80.71C128.02 81.58 128.24 82.4701 128.45 83.3801C128.66 84.2801 128.87 85.2001 129.07 86.1301C129.27 87.0601 129.47 88.01 129.64 88.99H129.17C129.35 88.01 129.53 87.0501 129.73 86.1301C129.92 85.2001 130.13 84.2901 130.34 83.3801C130.55 82.4701 130.77 81.59 130.99 80.71L135.21 64.3H138.73L131.41 91.0501H127.44L122.84 74.1001C122.54 73.0001 122.25 71.8001 121.98 70.5001C121.71 69.2001 121.44 67.7001 121.17 66.0001H121.89C121.63 67.6001 121.37 69.04 121.12 70.3C120.87 71.56 120.57 72.8301 120.22 74.1001L115.64 91.0501H111.66H111.65Z" fill="#4B4C4C"/>
<path d="M144.12 67.7C143.51 67.7 142.98 67.49 142.54 67.07C142.1 66.65 141.88 66.15 141.88 65.56C141.88 64.97 142.1 64.46 142.54 64.04C142.98 63.63 143.51 63.42 144.12 63.42C144.73 63.42 145.27 63.63 145.72 64.04C146.16 64.45 146.38 64.96 146.38 65.56C146.38 66.16 146.16 66.65 145.72 67.07C145.28 67.49 144.74 67.7 144.12 67.7ZM142.49 91.05V70.98H145.72V91.05H142.49Z" fill="#4B4C4C"/>
<path d="M154.62 79.0201V91.0501H151.39V70.9801H154.5L154.52 75.8401H154.07C154.68 73.9901 155.55 72.6701 156.68 71.8901C157.81 71.1101 159.14 70.7201 160.66 70.7201C162.01 70.7201 163.2 71.0001 164.21 71.5501C165.23 72.1101 166.02 72.9401 166.59 74.0601C167.16 75.1801 167.44 76.5901 167.44 78.2901V91.0401H164.21V78.5601C164.21 77.0201 163.81 75.8101 163 74.9301C162.19 74.0601 161.09 73.6201 159.69 73.6201C158.73 73.6201 157.87 73.8301 157.11 74.2501C156.34 74.6701 155.74 75.2801 155.3 76.0801C154.86 76.8801 154.64 77.8601 154.64 79.0101L154.62 79.0201Z" fill="#4B4C4C"/>
<path d="M180.63 91.48C178.97 91.48 177.49 91.06 176.21 90.21C174.93 89.36 173.93 88.16 173.21 86.6C172.49 85.04 172.13 83.2 172.13 81.07C172.13 78.94 172.49 77.1201 173.22 75.5701C173.94 74.0201 174.95 72.8301 176.23 71.9901C177.51 71.1501 178.98 70.73 180.65 70.73C181.95 70.73 182.99 70.9501 183.76 71.3801C184.53 71.8101 185.12 72.3 185.53 72.84C185.94 73.38 186.26 73.84 186.47 74.19H186.72V64.3H189.95V91.0501H186.83V87.9401H186.47C186.25 88.3101 185.93 88.7701 185.51 89.3301C185.08 89.8901 184.49 90.38 183.71 90.82C182.93 91.26 181.91 91.48 180.63 91.48ZM181.12 88.59C182.34 88.59 183.37 88.2701 184.21 87.6301C185.05 86.9901 185.68 86.1 186.11 84.96C186.54 83.82 186.76 82.5101 186.76 81.0301C186.76 79.5501 186.55 78.2501 186.12 77.1401C185.7 76.0301 185.06 75.17 184.23 74.55C183.4 73.93 182.36 73.62 181.12 73.62C179.88 73.62 178.79 73.9501 177.95 74.6101C177.11 75.2701 176.47 76.1601 176.06 77.2801C175.65 78.4001 175.43 79.65 175.43 81.04C175.43 82.43 175.64 83.71 176.07 84.85C176.5 85.99 177.13 86.9001 177.98 87.5801C178.83 88.2601 179.88 88.59 181.12 88.59Z" fill="#4B4C4C"/>
<path d="M203.79 91.48C201.97 91.48 200.38 91.05 199.01 90.19C197.64 89.33 196.57 88.12 195.81 86.56C195.04 85 194.66 83.2 194.66 81.14C194.66 79.08 195.04 77.22 195.81 75.66C196.58 74.1 197.64 72.89 199.01 72.03C200.38 71.17 201.98 70.74 203.79 70.74C205.6 70.74 207.22 71.17 208.6 72.03C209.98 72.89 211.05 74.1 211.81 75.66C212.57 77.22 212.96 79.05 212.96 81.14C212.96 83.23 212.58 85 211.81 86.56C211.04 88.12 209.97 89.32 208.6 90.19C207.22 91.05 205.62 91.48 203.79 91.48ZM203.79 88.59C205.14 88.59 206.26 88.24 207.13 87.55C208 86.86 208.65 85.94 209.07 84.81C209.49 83.68 209.7 82.46 209.7 81.14C209.7 79.82 209.49 78.58 209.07 77.43C208.65 76.29 208 75.37 207.13 74.67C206.26 73.97 205.14 73.62 203.79 73.62C202.44 73.62 201.35 73.97 200.49 74.67C199.63 75.37 198.99 76.29 198.57 77.43C198.15 78.57 197.94 79.81 197.94 81.15C197.94 82.49 198.15 83.69 198.57 84.82C198.99 85.95 199.63 86.86 200.49 87.56C201.35 88.25 202.45 88.6 203.79 88.6V88.59Z" fill="#4B4C4C"/>
<path d="M221.5 91.05L215.41 70.98H218.84L221.28 79.74C221.61 80.94 221.97 82.29 222.36 83.81C222.74 85.32 223.12 87.04 223.49 88.95H222.93C223.29 87.12 223.65 85.44 224.03 83.92C224.4 82.4 224.76 81.01 225.11 79.74L227.52 70.98H230.97L233.34 79.74C233.67 80.97 234.02 82.35 234.39 83.86C234.76 85.37 235.12 87.07 235.48 88.95H234.91C235.29 87.1 235.67 85.41 236.05 83.9C236.43 82.39 236.79 81 237.14 79.74L239.58 70.98H243.01L236.92 91.05H233.71L231.11 81.97C230.85 81.05 230.59 80.11 230.34 79.15C230.09 78.19 229.84 77.21 229.6 76.21C229.36 75.21 229.12 74.18 228.86 73.14H229.58C229.34 74.17 229.1 75.19 228.85 76.2C228.61 77.21 228.36 78.2 228.11 79.17C227.86 80.14 227.6 81.07 227.34 81.97L224.74 91.05H221.53H221.5Z" fill="#4B4C4C"/>
<path d="M257.82 91.0501V64.3H274.12V67.3201H261.23V76.0401H273.24V79.0601H261.23V88.0301H274.28V91.0501H257.82Z" fill="#4B4C4C"/>
<path d="M277.85 91.05L285.77 79.51L285.75 81.99L278.26 70.99H282.03L284.52 74.89C285.17 75.9 285.73 76.84 286.2 77.71C286.67 78.58 287.16 79.43 287.66 80.24H285.97C286.48 79.43 286.95 78.58 287.38 77.71C287.8 76.84 288.35 75.9 289 74.89L291.55 70.99H295.25L287.73 82.14V79.75L295.57 91.06H291.82L288.88 86.55C288.25 85.57 287.7 84.66 287.24 83.81C286.78 82.97 286.3 82.16 285.81 81.38H287.52C287.03 82.16 286.57 82.97 286.16 83.81C285.74 84.65 285.21 85.57 284.56 86.55L281.58 91.06H277.85V91.05Z" fill="#4B4C4C"/>
<path d="M299.59 98.55V70.98H302.71V74.19H303.07C303.3 73.83 303.61 73.38 304.02 72.84C304.43 72.3 305.01 71.81 305.78 71.38C306.55 70.95 307.58 70.73 308.89 70.73C310.56 70.73 312.04 71.15 313.31 71.99C314.59 72.83 315.58 74.02 316.31 75.57C317.03 77.12 317.4 78.95 317.4 81.07C317.4 83.19 317.04 85.04 316.32 86.6C315.6 88.16 314.6 89.36 313.33 90.21C312.06 91.06 310.58 91.48 308.91 91.48C307.64 91.48 306.62 91.26 305.84 90.82C305.06 90.38 304.46 89.89 304.05 89.33C303.63 88.77 303.31 88.31 303.08 87.94H302.83V98.55H299.6H299.59ZM308.42 88.59C309.68 88.59 310.73 88.25 311.57 87.58C312.41 86.9 313.05 86 313.47 84.85C313.89 83.7 314.11 82.44 314.11 81.04C314.11 79.64 313.9 78.4 313.48 77.28C313.06 76.16 312.43 75.27 311.59 74.61C310.75 73.95 309.69 73.62 308.42 73.62C307.15 73.62 306.15 73.93 305.31 74.55C304.47 75.17 303.84 76.04 303.42 77.14C303 78.25 302.78 79.54 302.78 81.03C302.78 82.52 303 83.82 303.43 84.96C303.86 86.1 304.5 86.99 305.34 87.63C306.18 88.27 307.21 88.59 308.42 88.59Z" fill="#4B4C4C"/>
<path d="M330.54 91.48C328.6 91.48 326.93 91.05 325.52 90.19C324.11 89.33 323.03 88.13 322.27 86.58C321.51 85.03 321.13 83.24 321.13 81.18C321.13 79.12 321.5 77.31 322.24 75.74C322.98 74.17 324.03 72.95 325.39 72.06C326.75 71.17 328.34 70.73 330.16 70.73C331.23 70.73 332.28 70.91 333.31 71.26C334.35 71.61 335.28 72.18 336.13 72.97C336.97 73.75 337.65 74.79 338.15 76.07C338.65 77.35 338.9 78.92 338.9 80.77V82.12H323.32V79.39H337.16L335.65 80.4C335.65 79.08 335.44 77.91 335.03 76.89C334.62 75.87 334 75.07 333.19 74.49C332.38 73.91 331.36 73.62 330.16 73.62C328.96 73.62 327.92 73.92 327.05 74.51C326.19 75.1 325.53 75.87 325.08 76.82C324.63 77.77 324.4 78.79 324.4 79.88V81.69C324.4 83.17 324.66 84.43 325.17 85.47C325.68 86.51 326.41 87.29 327.33 87.82C328.26 88.35 329.33 88.62 330.55 88.62C331.34 88.62 332.06 88.51 332.7 88.28C333.35 88.05 333.9 87.71 334.37 87.25C334.84 86.79 335.2 86.22 335.45 85.54L338.57 86.4C338.26 87.41 337.73 88.29 336.99 89.06C336.25 89.83 335.33 90.42 334.23 90.86C333.14 91.29 331.9 91.51 330.52 91.51L330.54 91.48Z" fill="#4B4C4C"/>
<path d="M343.53 91.0501V70.9801H346.65V74.0701H346.87C347.24 73.0501 347.9 72.2401 348.85 71.6201C349.8 71.0001 350.88 70.7001 352.07 70.7001C352.31 70.7001 352.59 70.7001 352.92 70.7201C353.25 70.7301 353.51 70.7401 353.7 70.7601V74.0101C353.6 73.9901 353.37 73.9501 352.98 73.9001C352.59 73.8501 352.19 73.8301 351.76 73.8301C350.8 73.8301 349.94 74.0301 349.18 74.4301C348.42 74.8301 347.83 75.3801 347.39 76.0801C346.96 76.7801 346.74 77.5801 346.74 78.4901V91.0601H343.51L343.53 91.0501Z" fill="#4B4C4C"/>
<path d="M365.85 70.9801V73.7401H355.47V70.9801H365.85ZM358.49 66.2101H361.72V85.8501C361.72 86.7501 361.9 87.4001 362.27 87.8201C362.64 88.2301 363.24 88.4401 364.09 88.4401C364.29 88.4401 364.55 88.4201 364.87 88.3701C365.19 88.3201 365.48 88.2701 365.74 88.2301L366.4 90.9601C366.07 91.0801 365.68 91.1701 365.26 91.2301C364.84 91.2901 364.41 91.3201 364 91.3201C362.26 91.3201 360.91 90.8601 359.94 89.9501C358.97 89.0401 358.49 87.7601 358.49 86.1201V66.2301V66.2101Z" fill="#4B4C4C"/>
<path d="M376.44 91.48C375.06 91.48 373.84 91.28 372.77 90.88C371.7 90.48 370.82 89.88 370.12 89.09C369.43 88.3 368.96 87.33 368.72 86.18L371.79 85.44C372.08 86.54 372.62 87.35 373.41 87.86C374.2 88.37 375.2 88.63 376.4 88.63C377.8 88.63 378.92 88.33 379.75 87.73C380.58 87.13 381 86.42 381 85.59C381 84.9 380.76 84.32 380.27 83.86C379.78 83.4 379.05 83.05 378.05 82.83L374.71 82.04C372.89 81.61 371.54 80.94 370.65 80.04C369.76 79.14 369.32 77.98 369.32 76.57C369.32 75.42 369.64 74.41 370.29 73.53C370.94 72.65 371.82 71.96 372.94 71.47C374.06 70.97 375.33 70.73 376.75 70.73C378.17 70.73 379.3 70.94 380.26 71.35C381.22 71.76 382.01 72.33 382.61 73.06C383.21 73.78 383.67 74.62 383.96 75.56L381.03 76.31C380.75 75.59 380.3 74.94 379.66 74.35C379.02 73.76 378.05 73.47 376.76 73.47C375.56 73.47 374.57 73.75 373.77 74.3C372.97 74.85 372.58 75.54 372.58 76.38C372.58 77.12 372.85 77.72 373.39 78.17C373.93 78.62 374.78 78.98 375.96 79.26L378.99 79.98C380.81 80.41 382.16 81.08 383.03 81.98C383.9 82.88 384.34 84.02 384.34 85.4C384.34 86.57 384.01 87.62 383.34 88.53C382.67 89.44 381.75 90.17 380.56 90.69C379.37 91.21 377.99 91.48 376.42 91.48H376.44Z" fill="#4B4C4C"/>
</svg>
