<svg width="16" height="17" viewBox="0 0 16 17" fill="none" xmlns="http://www.w3.org/2000/svg">
<path d="M6.60796 4.5319C6.41696 2.3349 4.12496 1.2569 4.02796 1.2129C3.93728 1.17028 3.83566 1.15666 3.73696 1.1739C1.09096 1.6129 0.692959 3.1529 0.676959 3.2169C0.65519 3.30609 0.658653 3.39957 0.686959 3.4869C3.84296 13.2789 10.402 15.0939 12.558 15.6909C12.724 15.7369 12.861 15.7739 12.965 15.8079C13.0836 15.8467 13.2126 15.8392 13.326 15.7869C13.392 15.7569 14.95 15.0229 15.331 12.6289C15.3479 12.5244 15.331 12.4172 15.283 12.3229C15.249 12.2569 14.434 10.7059 12.174 10.1579C12.0973 10.1383 12.017 10.1376 11.94 10.1559C11.863 10.1742 11.7916 10.2109 11.732 10.2629C11.019 10.8719 10.034 11.5209 9.60896 11.5879C6.75996 10.1949 5.16896 7.5219 5.10896 7.0149C5.07396 6.7299 5.72696 5.7289 6.47796 4.9149C6.52516 4.86367 6.56111 4.80313 6.5835 4.73716C6.60589 4.6712 6.61422 4.60128 6.60796 4.5319Z" fill="#2B96E4"/>
</svg>
