<svg width="24" height="25" viewBox="0 0 24 25" fill="none" xmlns="http://www.w3.org/2000/svg">
<path d="M19 11.1553H13V5.15527C13 4.89006 12.8946 4.6357 12.7071 4.44817C12.5196 4.26063 12.2652 4.15527 12 4.15527C11.7348 4.15527 11.4804 4.26063 11.2929 4.44817C11.1054 4.6357 11 4.89006 11 5.15527V11.1553H5C4.73478 11.1553 4.48043 11.2606 4.29289 11.4482C4.10536 11.6357 4 11.8901 4 12.1553C4 12.4205 4.10536 12.6748 4.29289 12.8624C4.48043 13.0499 4.73478 13.1553 5 13.1553H11V19.1553C11 19.4205 11.1054 19.6748 11.2929 19.8624C11.4804 20.0499 11.7348 20.1553 12 20.1553C12.2652 20.1553 12.5196 20.0499 12.7071 19.8624C12.8946 19.6748 13 19.4205 13 19.1553V13.1553H19C19.2652 13.1553 19.5196 13.0499 19.7071 12.8624C19.8946 12.6748 20 12.4205 20 12.1553C20 11.8901 19.8946 11.6357 19.7071 11.4482C19.5196 11.2606 19.2652 11.1553 19 11.1553Z" fill="white"/>
</svg>
